<svg width="1003" height="355" viewBox="0 0 1003 355" fill="none" xmlns="http://www.w3.org/2000/svg">
<rect width="1003" height="355" fill="black"/>
<rect x="654" y="70" width="201" height="201" rx="50" fill="#21C700"/>
<path d="M147.95 111.15C151.15 111.15 154.65 111.9 158.45 113.4C161.95 114.8 163.7 117.45 163.7 121.35V224.7C163.7 229.5 160.75 231.9 154.85 231.9C148.95 231.9 146 229.5 146 224.7V147.6L141.65 147.15L135.65 166.65L117.65 226.65C116.55 230.15 113.85 231.85 109.55 231.75C107.65 231.65 106 231.15 104.6 230.25C103.2 229.35 102.25 228.05 101.75 226.35L90.95 191.4C88.75 184.5 86.55 177.5 84.35 170.4C82.15 163.2 79.75 155.25 77.15 146.55L72.8 147.15V224.7C72.8 229.5 69.85 231.9 63.95 231.9C58.05 231.9 55.1 229.5 55.1 224.7V121.35C55.1 117.55 56.85 114.9 60.35 113.4C64.05 111.9 67.6 111.2 71 111.3C72.5 111.3 74.05 111.5 75.65 111.9C77.25 112.3 78.75 112.9 80.15 113.7C81.55 114.4 82.8 115.35 83.9 116.55C85 117.65 85.85 118.95 86.45 120.45L110 200.7C111.7 194.8 113.5 188.4 115.4 181.5C117.3 174.6 119.25 167.6 121.25 160.5C123.25 153.4 125.2 146.4 127.1 139.5C129.1 132.5 130.95 126 132.65 120C133.25 118.6 134.1 117.35 135.2 116.25C136.3 115.15 137.55 114.25 138.95 113.55C140.35 112.75 141.8 112.15 143.3 111.75C144.9 111.35 146.45 111.15 147.95 111.15ZM188.356 252C184.856 252 183.006 249.65 182.806 244.95C182.806 240.25 184.656 237.9 188.356 237.9H194.956C198.456 237.9 200.756 236.85 201.856 234.75L203.956 229.2L204.706 226.8L175.456 150.15V150.3C174.656 147.9 174.806 145.85 175.906 144.15C177.106 142.45 178.906 141.2 181.306 140.4C183.106 139.9 184.556 139.65 185.656 139.65C188.556 139.65 190.356 141.35 191.056 144.75L202.906 174.3L212.956 198.9L229.006 145.05C229.906 141.45 232.006 139.65 235.306 139.65C236.106 139.65 237.406 139.9 239.206 140.4C241.606 141.1 243.306 142.25 244.306 143.85C245.406 145.45 245.656 147.35 245.056 149.55C240.556 164.85 235.956 180.25 231.256 195.75C226.656 211.25 222.106 226.6 217.606 241.8C217.106 242.9 216.306 244 215.206 245.1C214.206 246.3 212.856 247.4 211.156 248.4C209.456 249.5 207.356 250.35 204.856 250.95C202.356 251.65 199.456 252 196.156 252H188.356ZM277.024 224.7C277.024 229.5 274.074 231.9 268.174 231.9C262.274 231.9 259.324 229.5 259.324 224.7V120.9C259.324 118.6 259.974 116.55 261.274 114.75C262.574 112.85 265.074 111.9 268.774 111.9H319.774C323.374 111.9 325.274 114.4 325.474 119.4C325.674 124.5 323.774 127.05 319.774 127.05H277.024V224.7ZM315.424 169.05C315.424 170.75 315.074 172.4 314.374 174C313.774 175.5 312.874 176.8 311.674 177.9C310.574 179 309.274 179.9 307.774 180.6C306.274 181.2 304.624 181.5 302.824 181.5C299.424 181.5 296.524 180.3 294.124 177.9C291.724 175.5 290.524 172.55 290.524 169.05C290.524 165.55 291.724 162.6 294.124 160.2C296.524 157.8 299.424 156.6 302.824 156.6C304.624 156.6 306.274 156.95 307.774 157.65C309.274 158.25 310.574 159.15 311.674 160.35C312.874 161.45 313.774 162.75 314.374 164.25C315.074 165.75 315.424 167.35 315.424 169.05ZM357.391 224.7C357.391 229.5 354.641 231.9 349.141 231.9C343.541 231.9 340.741 229.5 340.741 224.7V147.3C340.741 142.5 343.541 140.1 349.141 140.1C354.641 140.1 357.391 142.5 357.391 147.3V224.7ZM360.541 121.2C360.541 124.4 359.441 127.1 357.241 129.3C355.041 131.5 352.341 132.6 349.141 132.6C345.941 132.6 343.191 131.5 340.891 129.3C338.691 127.1 337.591 124.4 337.591 121.2C337.591 117.9 338.691 115.15 340.891 112.95C343.191 110.75 345.941 109.65 349.141 109.65C352.341 109.65 355.041 110.75 357.241 112.95C359.441 115.15 360.541 117.9 360.541 121.2ZM394.734 224.7C394.734 229.5 391.984 231.9 386.484 231.9C380.984 231.9 378.234 229.5 378.234 224.7V164.4C378.234 160.3 378.884 156.75 380.184 153.75C381.484 150.75 383.534 148.3 386.334 146.4C391.634 142.6 396.934 140.7 402.234 140.7H426.384C431.484 140.7 436.784 142.6 442.284 146.4C447.684 150.2 450.384 156.2 450.384 164.4V224.7C450.384 229.5 447.634 231.9 442.134 231.9C436.634 231.9 433.884 229.5 433.884 224.7V165.75C433.884 163.15 433.084 160.65 431.484 158.25L431.634 158.4C430.334 156 427.684 154.8 423.684 154.8H404.934C400.834 154.8 398.134 156 396.834 158.4C395.434 160.5 394.734 162.95 394.734 165.75V224.7ZM492.437 231C489.337 231 486.387 230.6 483.587 229.8C480.787 228.9 478.087 227.65 475.487 226.05V226.2C470.587 223.1 468.137 217.4 468.137 209.1V201.75C468.137 197.65 468.837 194.1 470.237 191.1C471.737 188 473.787 185.55 476.387 183.75H476.237C478.737 182.05 481.387 180.8 484.187 180C486.987 179.1 489.687 178.65 492.287 178.65H525.437V164.7C525.437 162.2 524.637 159.95 523.037 157.95C521.537 155.85 518.937 154.8 515.237 154.8H497.687C493.887 154.8 491.237 155.75 489.737 157.65C488.337 159.45 487.637 161.6 487.637 164.1V165.3C487.637 170.5 484.837 173.1 479.237 173.1C473.637 173.1 470.837 170.5 470.837 165.3V163.95C470.837 159.85 471.537 156.4 472.937 153.6C474.437 150.8 476.437 148.45 478.937 146.55H478.787C481.387 144.85 484.087 143.45 486.887 142.35C489.787 141.25 492.537 140.7 495.137 140.7H517.937C520.437 140.7 523.087 141.25 525.887 142.35C528.787 143.45 531.487 144.85 533.987 146.55H533.837C536.437 148.45 538.437 150.95 539.837 154.05C541.237 157.05 541.937 160.55 541.937 164.55V224.7C541.937 229.5 539.187 231.9 533.687 231.9C532.587 231.9 531.537 231.85 530.537 231.75C529.637 231.65 528.787 231.4 527.987 231C527.287 230.5 526.687 229.85 526.187 229.05C525.787 228.15 525.587 227 525.587 225.6L525.437 192.75H495.137C492.937 192.75 491.237 193 490.037 193.5C488.837 194 487.887 194.8 487.187 195.9C486.387 197.6 485.787 198.95 485.387 199.95C485.087 200.85 484.937 201.9 484.937 203.1V208.95C484.937 211.55 485.687 213.55 487.187 214.95C488.787 216.25 491.487 216.9 495.287 216.9H512.087C515.787 216.9 517.637 219.25 517.637 223.95C517.637 225.95 517.187 227.65 516.287 229.05C515.387 230.35 513.987 231 512.087 231H492.437ZM577.839 224.7C577.839 229.5 575.089 231.9 569.589 231.9C564.089 231.9 561.339 229.5 561.339 224.7V164.4C561.339 160.3 561.989 156.75 563.289 153.75C564.589 150.75 566.639 148.3 569.439 146.4C574.739 142.6 580.039 140.7 585.339 140.7H609.489C614.589 140.7 619.889 142.6 625.389 146.4C630.789 150.2 633.489 156.2 633.489 164.4V224.7C633.489 229.5 630.739 231.9 625.239 231.9C619.739 231.9 616.989 229.5 616.989 224.7V165.75C616.989 163.15 616.189 160.65 614.589 158.25L614.739 158.4C613.439 156 610.789 154.8 606.789 154.8H588.039C583.939 154.8 581.239 156 579.939 158.4C578.539 160.5 577.839 162.95 577.839 165.75V224.7ZM894.246 207C894.246 209.4 894.996 211.65 896.496 213.75C898.096 215.85 900.746 216.9 904.446 216.9H923.196C926.896 216.9 929.496 216 930.996 214.2C932.596 212.3 933.396 210.15 933.396 207.75V206.1C933.396 201.4 936.146 199.05 941.646 199.05C947.146 199.05 949.896 201.4 949.896 206.1V207.9C949.896 212.1 949.196 215.55 947.796 218.25C946.496 220.95 944.496 223.3 941.796 225.3C936.496 229.1 931.196 231 925.896 231H900.696C895.396 231 890.246 229.1 885.246 225.3C882.846 223.3 880.996 220.8 879.696 217.8C878.396 214.7 877.746 211.15 877.746 207.15V164.4C877.746 156.3 880.246 150.3 885.246 146.4C887.746 144.6 890.296 143.2 892.896 142.2C895.596 141.1 898.196 140.55 900.696 140.55H925.896C928.296 140.55 930.946 141.05 933.846 142.05C936.746 142.95 939.446 144.2 941.946 145.8C944.346 147.5 946.246 149.85 947.646 152.85C949.146 155.85 949.896 159.4 949.896 163.5V183.75C949.896 186.05 949.196 188.1 947.796 189.9C946.496 191.7 944.046 192.6 940.446 192.6H908.046C904.446 192.6 902.546 190.25 902.346 185.55C902.346 180.85 904.246 178.5 908.046 178.5H933.546L933.396 164.55C933.396 162.05 932.596 159.8 930.996 157.8C929.496 155.7 926.896 154.65 923.196 154.65H904.446C900.746 154.65 898.096 155.7 896.496 157.8C894.996 159.8 894.246 162.05 894.246 164.55V207Z" fill="white"/>
<path d="M750.8 85.2C750.8 82.6667 752.333 81.3333 755.4 81.2C758.6 81.0667 760.2 82.4 760.2 85.2V94.2H770C773.467 94.2 777 94.9333 780.6 96.4C784.333 97.8667 787.933 99.7333 791.4 102H791.2C794.667 104.533 797.333 107.8 799.2 111.8C801.067 115.8 802 120.6 802 126.2V137.8C802 144.2 798 147.4 790 147.4C782.267 147.4 778.4 144.2 778.4 137.8V127.8C778.4 124.333 777.333 121.2 775.2 118.4C773.2 115.6 769.733 114.2 764.8 114.2H760.2V157.6H770C773.467 157.6 777 158.333 780.6 159.8C784.333 161.267 787.933 163.2 791.4 165.6H791.2C794.667 168 797.333 171.267 799.2 175.4C801.067 179.533 802 184.267 802 189.6V213C802 223.933 798.4 232 791.2 237.2C784 242.4 776.933 245 770 245H760.2V255.2C760.2 258.267 758.6 259.667 755.4 259.4C752.333 259.4 750.8 258 750.8 255.2V245H740.2C736.733 245 733.133 244.333 729.4 243C725.8 241.667 722.267 239.733 718.8 237.2C711.733 232 708.2 223.933 708.2 213V203.8C708.2 197.533 712.067 194.4 719.8 194.4C727.8 194.4 731.8 197.533 731.8 203.8V211.4C731.8 214.733 732.8 217.8 734.8 220.6C736.8 223.4 740.267 224.8 745.2 224.8H750.8V177.6H740.2C733.267 177.6 726.133 175.067 718.8 170C711.733 164.533 708.2 156.467 708.2 145.8V126.2C708.2 115.267 711.733 107.2 718.8 102H718.6C722.067 99.7333 725.667 97.8667 729.4 96.4C733.133 94.9333 736.733 94.2 740.2 94.2H750.8V85.2ZM760.2 177.6V224.8H764.8C769.733 224.8 773.2 223.4 775.2 220.6C777.333 217.8 778.4 214.733 778.4 211.4V191.2C778.4 187.867 777.333 184.8 775.2 182C773.2 179.067 769.733 177.6 764.8 177.6H760.2ZM731.8 144.2C731.8 147.667 732.8 150.8 734.8 153.6C736.8 156.267 740.267 157.6 745.2 157.6H750.8V114.2H745.2C740.267 114.2 736.8 115.6 734.8 118.4C732.8 121.2 731.8 124.333 731.8 127.8V144.2Z" fill="black"/>
</svg>
